<svg xmlns="http://www.w3.org/2000/svg" width="368.676" height="81.056" viewBox="0 0 368.676 81.056"><defs><style>.a{fill:#9b9b9b;}.b{fill:#003564;}.c{fill:#e3000b;}.d{fill:#fff;}</style></defs><g transform="translate(-5.3 -4.72)"><g transform="translate(164.131 71.959)"><path class="a" d="M68.875,31.39V43.823H67.26V31.39h1.615Z" transform="translate(-67.26 -30.262)"/><path class="a" d="M69.15,32.335h1.538V34c.846-.743,1.923-1.871,3.486-1.871,1.589,0,2.563.948,2.538,2.922v7.613H75.174V35.616c0-1.051-.256-2.076-1.512-2.076a4.026,4.026,0,0,0-2.974,1.769v7.357H69.15Z" transform="translate(-64.305 -29.105)"/><path class="a" d="M73.32,32.335h1.538V34c.846-.743,1.923-1.871,3.486-1.871,1.589,0,2.563.948,2.538,2.922v7.613H79.344V35.616c0-1.051-.256-2.076-1.512-2.076a4.026,4.026,0,0,0-2.974,1.769v7.357H73.32Z" transform="translate(-57.785 -29.105)"/><path class="a" d="M77.28,37.488c0-2.64,1.179-5.358,4.332-5.358,3.666,0,4.332,3.281,4.332,5.358,0,2.666-1.179,5.383-4.332,5.383C77.947,42.845,77.28,39.564,77.28,37.488Zm1.589-.026c0,2.025.564,4.178,2.743,4.178s2.743-2.153,2.743-4.178c0-2-.564-4.127-2.743-4.127C79.433,33.36,78.869,35.488,78.869,37.462Z" transform="translate(-51.594 -29.105)"/><path class="a" d="M82.928,32.21l1.794,5.9c.282.9.461,1.512.82,2.871h.077c.359-1.359.513-1.974.82-2.871l1.871-5.9h1.538L86.491,42.515h-1.9L81.21,32.21Z" transform="translate(-45.45 -28.98)"/><path class="a" d="M85.6,34.719A3.513,3.513,0,0,1,89.34,32.13c3.051,0,3.461,2.076,3.461,3.9v5.435a8.378,8.378,0,0,0,.077,1.2H91.237V40.923h-.026a3.9,3.9,0,0,1-3.23,1.846,2.714,2.714,0,0,1-2.871-2.922c0-2.358,1.82-3.538,4.665-3.538h1.487v-.667c0-.692,0-2.358-2-2.358a2.332,2.332,0,0,0-2.307,1.82Zm4.512,2.717c-2.2,0-3.486.692-3.486,2.256a1.625,1.625,0,0,0,1.718,1.82c.641,0,1.461-.154,2.871-1.769V37.436Z" transform="translate(-39.352 -29.105)"/><path class="a" d="M90.488,31.931l1.538-.641v3.2h2.435v1.154H92.026v5.691c0,.846.077,1.641,1.23,1.641a2.758,2.758,0,0,0,1.282-.308V43.9a4.349,4.349,0,0,1-1.436.308,2.353,2.353,0,0,1-2.589-2.666v-5.87H88.95V34.52h1.564V31.931Z" transform="translate(-33.349 -30.418)"/><path class="a" d="M91.95,30.95h1.718v1.538H91.95Zm.077,3.23h1.538V44.485H92.027Z" transform="translate(-28.658 -30.95)"/><path class="a" d="M95.1,32.21l1.794,5.9c.282.9.461,1.512.82,2.871h.077c.359-1.359.513-1.974.82-2.871l1.871-5.9h1.538L98.661,42.515h-1.9L93.38,32.21Z" transform="translate(-26.423 -28.98)"/><path class="a" d="M98.9,37.9c.077,2.769,1.359,3.743,2.743,3.743a2.513,2.513,0,0,0,2.487-1.82l1.333.461a3.915,3.915,0,0,1-3.82,2.563c-3.666,0-4.332-3.281-4.332-5.383,0-2.076.692-5.358,4.332-5.358,2.974,0,4.025,2.563,4.025,5v.769H98.9Zm5.153-1.128c0-1.846-.846-3.384-2.487-3.384-1.615,0-2.487,1.282-2.692,3.384Z" transform="translate(-20.278 -29.136)"/><path class="a" d="M103.76,31.39h3.948c1.512,0,4.384.308,4.384,3.589,0,3.127-2.384,3.743-4.23,3.743h-2.487V43.8H103.76Zm1.615,6.05h2.487c1.564,0,2.64-.743,2.64-2.384,0-1.948-1.487-2.384-2.64-2.384h-2.487Z" transform="translate(-10.194 -30.262)"/><path class="a" d="M117.847,40.862a4.384,4.384,0,0,1-4.589,3.358c-4.05,0-5.409-3.358-5.409-6.46,0-4.819,2.794-6.46,5.409-6.46a4.248,4.248,0,0,1,4.409,3.051l-1.564.41a2.86,2.86,0,0,0-2.845-2.153c-2.82,0-3.691,2.82-3.691,5.178,0,1.871.436,5.178,3.691,5.178a2.945,2.945,0,0,0,3-2.435Z" transform="translate(-3.8 -30.403)"/><path class="a" d="M112.75,31.39h4.383c2,0,3.717.948,3.717,3.179a2.691,2.691,0,0,1-2.179,2.692v.077a2.962,2.962,0,0,1,2.512,3.127c0,2.358-1.974,3.332-4.076,3.332H112.75V31.39Zm1.589,5.332H116.8c1.359,0,2.41-.666,2.41-2.051,0-1.461-1.1-2-2.512-2h-2.358Zm0,5.793h2.589c1.307,0,2.615-.41,2.615-2.256,0-1.487-1.051-2.256-2.538-2.256h-2.64v4.512Z" transform="translate(3.861 -30.262)"/><path class="a" d="M120.608,41.005a2.483,2.483,0,0,0,2.589,1.923,2.249,2.249,0,0,0,2.41-2.153A1.973,1.973,0,0,0,124.3,38.8l-3-1.384a2.843,2.843,0,0,1-1.846-2.717c0-2.435,2.1-3.409,3.9-3.409,1.769,0,3.2.615,3.794,2.256l-1.564.513a2.073,2.073,0,0,0-2.23-1.487,1.9,1.9,0,0,0-2.179,2c0,1.23.846,1.615,1.641,1.948l2.23.974a3.322,3.322,0,0,1,2.281,3.23c0,1.179-.718,3.486-4.255,3.486a3.832,3.832,0,0,1-4-2.64Z" transform="translate(13.742 -30.418)"/><path class="a" d="M123.14,37.488c0-2.64,1.179-5.358,4.332-5.358,3.666,0,4.332,3.281,4.332,5.358,0,2.666-1.179,5.383-4.332,5.383C123.832,42.845,123.14,39.564,123.14,37.488Zm1.615-.026c0,2.025.564,4.178,2.743,4.178s2.743-2.153,2.743-4.178c0-2-.564-4.127-2.743-4.127C125.319,33.36,124.755,35.488,124.755,37.462Z" transform="translate(20.106 -29.105)"/><path class="a" d="M127.58,30.95h1.538V44.511H127.58V30.95Z" transform="translate(27.047 -30.95)"/><path class="a" d="M137.023,42.531h-1.538V40.864c-.846.743-1.923,1.871-3.486,1.871-1.589,0-2.563-.948-2.538-2.922V32.2H131v7.049c0,1.051.256,2.076,1.512,2.076a4.026,4.026,0,0,0,2.974-1.769V32.2h1.538Z" transform="translate(29.986 -28.996)"/><path class="a" d="M134.848,31.931l1.538-.641v3.2h2.435v1.154h-2.435v5.691c0,.846.077,1.641,1.23,1.641a2.758,2.758,0,0,0,1.282-.308V43.9a4.349,4.349,0,0,1-1.436.308,2.353,2.353,0,0,1-2.589-2.666v-5.87H133.31V34.52h1.564V31.931Z" transform="translate(36.006 -30.418)"/><path class="a" d="M136.31,30.95h1.717v1.538H136.31Zm.077,3.23h1.538V44.485h-1.538Z" transform="translate(40.696 -30.95)"/><path class="a" d="M137.99,37.488c0-2.64,1.179-5.358,4.332-5.358,3.666,0,4.332,3.281,4.332,5.358,0,2.666-1.179,5.383-4.332,5.383C138.682,42.845,137.99,39.564,137.99,37.488Zm1.615-.026c0,2.025.564,4.178,2.743,4.178s2.743-2.153,2.743-4.178c0-2-.564-4.127-2.743-4.127C140.169,33.36,139.6,35.488,139.6,37.462Z" transform="translate(43.323 -29.105)"/><path class="a" d="M142.39,32.335h1.538V34c.846-.743,1.923-1.871,3.486-1.871,1.589,0,2.563.948,2.538,2.922v7.613h-1.538V35.616c0-1.051-.256-2.076-1.512-2.076a4.026,4.026,0,0,0-2.974,1.769v7.357H142.39Z" transform="translate(50.202 -29.105)"/><path class="a" d="M147.609,39.82a2.346,2.346,0,0,0,2.333,1.82c1.641,0,2.128-1.051,2.128-1.718,0-1.051-.795-1.436-2.076-1.82l-.769-.256c-1.384-.436-2.64-1.128-2.64-2.845,0-2.1,1.974-2.871,3.461-2.871a3.225,3.225,0,0,1,3.307,2.333l-1.333.461a2,2,0,0,0-2-1.589c-1,0-1.9.487-1.9,1.564,0,.795.359,1.128,1.512,1.538l1.41.487c1.718.59,2.563,1.333,2.563,2.922,0,1.154-.769,3.025-3.691,3.025a3.509,3.509,0,0,1-3.666-2.589Z" transform="translate(56.237 -29.105)"/></g><g transform="translate(5.3 4.72)"><path class="b" d="M51.375,4.72A3.435,3.435,0,0,0,47.94,8.155a3.372,3.372,0,0,0,1,2.41,3.416,3.416,0,0,0,2.41,1,3.372,3.372,0,0,0,2.41-1,3.416,3.416,0,0,0,1-2.41,3.476,3.476,0,0,0-1-2.435A3.313,3.313,0,0,0,51.375,4.72Z" transform="translate(61.366 -4.72)"/><rect class="b" width="4.178" height="33.556" transform="translate(110.639 11.433)"/><path class="b" d="M80.145,4.72A3.435,3.435,0,0,0,76.71,8.155a3.372,3.372,0,0,0,1,2.41,3.416,3.416,0,0,0,2.41,1,3.372,3.372,0,0,0,2.41-1,3.416,3.416,0,0,0,1-2.41,3.476,3.476,0,0,0-1-2.435A3.314,3.314,0,0,0,80.145,4.72Z" transform="translate(106.346 -4.72)"/><rect class="b" width="4.178" height="33.556" transform="translate(184.389 11.433)"/><path class="b" d="M27.423,5.03A21.767,21.767,0,0,0,11.76,11.464,22.7,22.7,0,0,0,5.3,27.614a22.514,22.514,0,0,0,6.588,16.073,21.576,21.576,0,0,0,15.56,6.434,22.16,22.16,0,0,0,15.406-5.87A22.6,22.6,0,0,0,49.6,27.64a22.616,22.616,0,0,0-6.486-16.15A21.7,21.7,0,0,0,27.423,5.03Zm0,41.118A17.219,17.219,0,0,1,14.964,41.1,18.835,18.835,0,0,1,9.684,27.614a18.562,18.562,0,0,1,5.05-13.227A17.24,17.24,0,0,1,27.423,9.08a17.118,17.118,0,0,1,12.433,5.05,18.835,18.835,0,0,1,5.281,13.484A18.835,18.835,0,0,1,39.855,41.1,17.118,17.118,0,0,1,27.423,46.148Z" transform="translate(-5.3 -4.235)"/><path class="b" d="M113.769,43.292a8.824,8.824,0,0,1-4.435,1.41A4.637,4.637,0,0,1,106,43.651a4.408,4.408,0,0,1-1.051-3.23V19.247h8.793v-4.2h-8.793V5.43l-4.178,3.486v6.152H92.8v4.178h7.972V40.524a8.556,8.556,0,0,0,2.2,6.2,7.614,7.614,0,0,0,5.511,2.051c.923,0,4.076-.1,6.05-1.282l.359-.231V42.523Z" transform="translate(131.502 -3.61)"/><path class="b" d="M53.623,44.7a4.569,4.569,0,0,1-3.307-1.051,4.4,4.4,0,0,1-1.025-3.23V19.247h8.793v-4.2H49.291V5.43L45.112,8.916v6.152H37.14v4.178h7.972V40.524a8.556,8.556,0,0,0,2.2,6.2,7.614,7.614,0,0,0,5.511,2.051c.923,0,4.076-.1,6.05-1.282l.359-.231V42.523l-1.179.769A9.17,9.17,0,0,1,53.623,44.7Z" transform="translate(44.48 -3.61)"/><path class="b" d="M36.474,8.88a11.966,11.966,0,0,0-7.024,1.846l-.1-1.051H25.4V59.252h4.178V41.641a.364.364,0,0,0,.154.051A11.685,11.685,0,0,0,36.5,43.487a17.08,17.08,0,0,0,11.818-4.512c3.538-3.358,5-7.049,5-12.74a17.2,17.2,0,0,0-4.794-12.381C45.292,10.623,42.447,8.88,36.474,8.88Zm0,30.505a13.076,13.076,0,0,1-6.665-2.025.954.954,0,0,1-.256-.667v-21.3a1.089,1.089,0,0,1,.282-.692c1.282-.795,2.948-1.641,6.639-1.641a12.208,12.208,0,0,1,8.844,3.589,13.21,13.21,0,0,1,3.563,9.587c0,5.024-1.359,7.383-3.563,9.587A12.309,12.309,0,0,1,36.474,39.385Z" transform="translate(26.125 1.784)"/><path class="b" d="M64.944,8.88a11.966,11.966,0,0,0-7.024,1.846l-.077-1.051H53.87V59.252h4.178V41.641a.364.364,0,0,0,.154.051,11.685,11.685,0,0,0,6.768,1.794,17.034,17.034,0,0,0,11.818-4.512c3.563-3.358,5-7.049,5-12.74a17.31,17.31,0,0,0-4.794-12.381C73.762,10.623,70.891,8.88,64.944,8.88Zm0,30.505a13.076,13.076,0,0,1-6.665-2.025.954.954,0,0,1-.256-.667v-21.3A1.089,1.089,0,0,1,58.3,14.7c1.282-.795,2.948-1.641,6.639-1.641a12.166,12.166,0,0,1,8.844,3.589,13.21,13.21,0,0,1,3.563,9.587c0,5.024-1.359,7.383-3.563,9.587A12.352,12.352,0,0,1,64.944,39.385Z" transform="translate(70.637 1.784)"/><path class="b" d="M87.713,11.722a7.588,7.588,0,0,0-6.1-2.692c-5.64,0-7.793,3.435-10.279,7.408V9.389l-4.153.077L67.206,43h4.178V24.334c0-1.846,1.846-5.691,4.589-8.434,1.615-1.615,3.23-2.512,4.563-2.512a5.051,5.051,0,0,1,4.255,2.076c.718.769,1.256,1.41,1.256,1.41l2.974-3.666C88.969,13.234,88.482,12.542,87.713,11.722Z" transform="translate(91.446 2.018)"/><path class="b" d="M95.542,9.07c-4.332,0-6.921,1.23-9.434,4.589l.026-4.307H81.956L81.93,42.933h4.178V18.939a5.255,5.255,0,0,1,1.666-2.563,10.437,10.437,0,0,1,7.2-3.127,8.818,8.818,0,0,1,5.383,1.923c1.564,1.564,2.538,3.589,2.538,8.818V42.908h4.178V23.066c0-5.1-1.051-8.229-3.64-10.818A11.232,11.232,0,0,0,95.542,9.07Z" transform="translate(114.507 2.081)"/></g><rect class="c" width="12.407" height="12.407" transform="translate(145.29 73.267)"/><path class="d" d="M63.537,32.37v2.717H60.82v2.307h2.717v2.717h2.281V37.394h2.743V35.087H65.819V32.37Z" transform="translate(86.803 43.229)"/></g></svg>